<svg xmlns="http://www.w3.org/2000/svg" version="1.1" xmlns:xlink="http://www.w3.org/1999/xlink" xmlns:svgjs="http://svgjs.dev/svgjs" width="1500" height="1500" viewBox="0 0 1500 1500"><rect width="1500" height="1500" fill="#000000"></rect><g transform="matrix(0.6666666666666666,0,0,0.6666666666666666,250.16994382022466,574.429616)"><svg viewBox="0 0 356 125" data-background-color="#ffffff" preserveAspectRatio="xMidYMid meet" height="526" width="1500" xmlns="http://www.w3.org/2000/svg" xmlns:xlink="http://www.w3.org/1999/xlink"><g id="tight-bounds" transform="matrix(1,0,0,1,-0.06049999999996203,0.08449999999999136)"><svg viewBox="0 0 356.12052 124.83080243279315" height="124.83080243279315" width="356.12052"><g><svg viewBox="0 0 356.12052 124.83080243279315" height="124.83080243279315" width="356.12052"><g><svg viewBox="0 0 356.12052 124.83080243279315" height="124.83080243279315" width="356.12052"><g><path d="M0 124.831v-124.831h356.121v124.831z" fill="#ffffff" stroke="transparent" stroke-width="0" rx="0%" data-fill-palette-color="tertiary"></path><path d="M3.283 121.548v-118.265h349.554v118.265z" fill="#000000" stroke="transparent" stroke-width="0" rx="0%" data-fill-palette-color="quaternary"></path><path d="M9.85 114.981v-105.131h336.421v105.131z" fill="#ffffff" stroke="transparent" stroke-width="0" data-fill-palette-color="tertiary"></path></g><g transform="matrix(1,0,0,1,19.69974,19.69974)" id="textblocktransform"><svg viewBox="0 0 316.72104 85.43132243279315" height="85.43132243279315" width="316.72104" id="textblock"><g><svg viewBox="0 0 316.72104 70.8367131085353" height="70.8367131085353" width="316.72104"><g transform="matrix(1,0,0,1,0,0)"><svg width="316.72104" viewBox="2.25 -36.5 189.79 42.45" height="70.8367131085353" data-palette-color="#000000"><path d="M27.75 5.95L27.75 5.95 4.55 5.95Q3.35 5.95 2.8 5.4 2.25 4.85 2.25 3.65L2.25 3.65 2.25-28.75Q2.25-29.4 2.43-29.85 2.6-30.3 2.95-30.6L2.95-30.6 9.4-36.05Q9.65-36.25 10.08-36.38 10.5-36.5 11-36.5L11-36.5 34.2-36.5Q35.4-36.5 35.95-35.95 36.5-35.4 36.5-34.2L36.5-34.2 36.5-28.35Q36.5-27.7 36.33-27.25 36.15-26.8 35.8-26.5L35.8-26.5 31.5-22.95Q32-22.7 32.23-22.2 32.45-21.7 32.45-20.9L32.45-20.9 32.45-15.55Q32.45-14.9 32.27-14.45 32.1-14 31.75-13.7L31.75-13.7 27.3-9.95 34.2-9.95Q35.4-9.95 35.95-9.4 36.5-8.85 36.5-7.65L36.5-7.65 36.5-1.8Q36.5-1.15 36.33-0.7 36.15-0.25 35.8 0.05L35.8 0.05 29.3 5.45Q29.1 5.65 28.68 5.8 28.25 5.95 27.75 5.95ZM11 0L34.2 0Q35.15 0 35.58-0.43 36-0.85 36-1.8L36-1.8 36-7.65Q36-8.6 35.58-9.03 35.15-9.45 34.2-9.45L34.2-9.45 20.4-9.45 20.4-13.75 30.15-13.75Q31.1-13.75 31.53-14.18 31.95-14.6 31.95-15.55L31.95-15.55 31.95-20.9Q31.95-21.85 31.53-22.28 31.1-22.7 30.15-22.7L30.15-22.7 20.4-22.7 20.4-26.55 34.2-26.55Q35.15-26.55 35.58-26.98 36-27.4 36-28.35L36-28.35 36-34.2Q36-35.15 35.58-35.58 35.15-36 34.2-36L34.2-36 11-36Q10.05-36 9.63-35.58 9.2-35.15 9.2-34.2L9.2-34.2 9.2-1.8Q9.2-0.85 9.63-0.43 10.05 0 11 0L11 0ZM15.15-5L31.5-5 31.5-4.5 14.65-4.5 14.65-31.5 31.5-31.5 31.5-31 15.15-31 15.15-18.45 27.45-18.45 27.45-17.95 15.15-17.95 15.15-5ZM63.7-31L63.7-31 52.8-31 52.8-16.55 63.7-16.55Q66.8-16.55 67.85-18.05 68.9-19.55 68.9-22.3L68.9-22.3 68.9-25.8Q68.9-28.1 67.62-29.55 66.35-31 63.7-31ZM58.2-20.6L58.2-27 61.95-27Q63.25-27 63.7-26.33 64.15-25.65 64.15-24.65L64.15-24.65 64.15-22.95Q64.15-21.95 63.7-21.28 63.25-20.6 61.95-20.6L61.95-20.6 58.2-20.6ZM52.8-16.1L52.8-4.5 52.3-4.5 52.3-31.5 63.7-31.5Q66.6-31.5 68-29.88 69.4-28.25 69.4-25.8L69.4-25.8 69.4-22.35Q69.4-20.05 68.8-18.57 68.2-17.1 66.4-16.55L66.4-16.55 66.95-16.55Q70-16.55 71.5-15.18 73-13.8 73-11.2L73-11.2 73-4.5 72.5-4.5 72.5-11.2Q72.5-13.65 71.15-14.88 69.8-16.1 66.95-16.1L66.95-16.1 52.8-16.1ZM48.7 0L56.4 0Q57.35 0 57.77-0.43 58.2-0.85 58.2-1.8L58.2-1.8 58.2-11.6 65.2-11.6Q66.25-11.6 66.67-11.08 67.1-10.55 67.1-9.45L67.1-9.45 67.1-1.8Q67.1-0.85 67.52-0.43 67.95 0 68.9 0L68.9 0 76.65 0Q77.6 0 78.02-0.43 78.45-0.85 78.45-1.8L78.45-1.8 78.45-12.4Q78.45-15.55 76.77-17.45 75.1-19.35 72.4-19.65L72.4-19.65Q73.95-20.3 74.57-21.78 75.2-23.25 75.2-25.35L75.2-25.35 75.2-27.65Q75.2-31.35 73.07-33.68 70.95-36 65.35-36L65.35-36 48.7-36Q47.75-36 47.32-35.58 46.9-35.15 46.9-34.2L46.9-34.2 46.9-1.8Q46.9-0.85 47.32-0.43 47.75 0 48.7 0L48.7 0ZM58 0.05L58 0.05 51.5 5.45Q51.3 5.65 50.87 5.8 50.45 5.95 49.95 5.95L49.95 5.95 42.25 5.95Q41.05 5.95 40.5 5.4 39.95 4.85 39.95 3.65L39.95 3.65 39.95-28.75Q39.95-29.4 40.12-29.85 40.3-30.3 40.65-30.6L40.65-30.6 47.1-36.05Q47.35-36.25 47.77-36.38 48.2-36.5 48.7-36.5L48.7-36.5 65.35-36.5Q71.3-36.5 73.5-34.02 75.7-31.55 75.7-27.65L75.7-27.65 75.7-25.35Q75.7-23.5 75.25-22.13 74.8-20.75 73.8-19.9L73.8-19.9 73.75-19.9Q76.1-19.25 77.52-17.3 78.95-15.35 78.95-12.4L78.95-12.4 78.95-1.8Q78.95-1.15 78.77-0.7 78.6-0.25 78.25 0.05L78.25 0.05 71.75 5.45Q71.55 5.65 71.12 5.8 70.7 5.95 70.2 5.95L70.2 5.95 62.45 5.95Q61.25 5.95 60.7 5.4 60.15 4.85 60.15 3.65L60.15 3.65 60.15-4Q60.15-4.8 59.85-5.23 59.55-5.65 58.75-5.65L58.75-5.65 58.7-5.65 58.7-1.8Q58.7-1.15 58.52-0.7 58.35-0.25 58 0.05ZM104.9 5.95L104.9 5.95 83.6 5.95Q82.4 5.95 81.85 5.4 81.3 4.85 81.3 3.65L81.3 3.65 81.3-2.3Q81.3-2.95 81.47-3.4 81.65-3.85 82-4.15L82-4.15 88.05-9.25 88.05-20.4 83.6-20.4Q82.4-20.4 81.85-20.95 81.3-21.5 81.3-22.7L81.3-22.7 81.3-28.75Q81.3-29.4 81.47-29.85 81.65-30.3 82-30.6L82-30.6 88.45-36.05Q88.7-36.25 89.12-36.38 89.55-36.5 90.05-36.5L90.05-36.5 111.35-36.5Q112.55-36.5 113.1-35.95 113.65-35.4 113.65-34.2L113.65-34.2 113.65-28.15Q113.65-27.5 113.47-27.05 113.3-26.6 112.95-26.3L112.95-26.3 107-21.3 107-10.05 111.35-10.05Q112.55-10.05 113.1-9.5 113.65-8.95 113.65-7.75L113.65-7.75 113.65-1.8Q113.65-1.15 113.47-0.7 113.3-0.25 112.95 0.05L112.95 0.05 106.45 5.45Q106.25 5.65 105.82 5.8 105.4 5.95 104.9 5.95ZM90.05 0L90.05 0 111.35 0Q112.3 0 112.72-0.43 113.15-0.85 113.15-1.8L113.15-1.8 113.15-7.75Q113.15-8.7 112.72-9.13 112.3-9.55 111.35-9.55L111.35-9.55 106.5-9.55 106.5-26.35 111.35-26.35Q112.3-26.35 112.72-26.78 113.15-27.2 113.15-28.15L113.15-28.15 113.15-34.2Q113.15-35.15 112.72-35.58 112.3-36 111.35-36L111.35-36 90.05-36Q89.1-36 88.67-35.58 88.25-35.15 88.25-34.2L88.25-34.2 88.25-28.15Q88.25-27.2 88.67-26.78 89.1-26.35 90.05-26.35L90.05-26.35 95-26.35 95-9.55 90.05-9.55Q89.1-9.55 88.67-9.13 88.25-8.7 88.25-7.75L88.25-7.75 88.25-1.8Q88.25-0.85 88.67-0.43 89.1 0 90.05 0ZM108.65-5L108.65-4.5 92.75-4.5 92.75-5 100.5-5 100.5-31 92.75-31 92.75-31.5 108.65-31.5 108.65-31 101-31 101-5 108.65-5ZM141.79 5.95L141.79 5.95 129.59 5.95Q123.04 5.95 119.92 2.55 116.79-0.85 116.79-6.25L116.79-6.25 116.79-20.3Q116.79-23.05 117.59-25.08 118.39-27.1 119.94-28.45L119.94-28.45 126.44-33.9Q127.99-35.2 130.39-35.85 132.79-36.5 136.04-36.5L136.04-36.5 148.24-36.5Q149.44-36.5 149.99-35.95 150.54-35.4 150.54-34.2L150.54-34.2 150.54-28.15Q150.54-27.5 150.37-27.05 150.19-26.6 149.84-26.3L149.84-26.3 143.34-20.9Q143.14-20.7 142.72-20.55 142.29-20.4 141.79-20.4L141.79-20.4 135.64-20.4 135.64-11.95Q135.64-10.9 136.29-10.48 136.94-10.05 138.19-10.05L138.19-10.05 148.24-10.05Q149.44-10.05 149.99-9.5 150.54-8.95 150.54-7.75L150.54-7.75 150.54-1.8Q150.54-1.15 150.37-0.7 150.19-0.25 149.84 0.05L149.84 0.05 143.34 5.45Q143.14 5.65 142.72 5.8 142.29 5.95 141.79 5.95ZM136.04 0L148.24 0Q149.19 0 149.62-0.43 150.04-0.85 150.04-1.8L150.04-1.8 150.04-7.75Q150.04-8.7 149.62-9.13 149.19-9.55 148.24-9.55L148.24-9.55 138.19-9.55Q136.64-9.55 135.89-10.13 135.14-10.7 135.14-11.95L135.14-11.95 135.14-23.85Q135.14-25.1 135.89-25.73 136.64-26.35 138.19-26.35L138.19-26.35 148.24-26.35Q149.19-26.35 149.62-26.78 150.04-27.2 150.04-28.15L150.04-28.15 150.04-34.2Q150.04-35.15 149.62-35.58 149.19-36 148.24-36L148.24-36 136.04-36Q129.79-36 126.77-33.48 123.74-30.95 123.74-25.75L123.74-25.75 123.74-10.2Q123.74-5 126.77-2.5 129.79 0 136.04 0L136.04 0ZM137.14-5L145.49-5 145.49-4.5 137.14-4.5Q132.29-4.5 130.72-6 129.14-7.5 129.14-10.95L129.14-10.95 129.14-24.95Q129.14-28.5 130.74-30 132.34-31.5 137.14-31.5L137.14-31.5 145.49-31.5 145.49-31 137.14-31Q132.74-31 131.19-29.63 129.64-28.25 129.64-24.95L129.64-24.95 129.64-10.95Q129.64-7.7 131.14-6.35 132.64-5 137.14-5L137.14-5ZM166.64-17.7L166.64-4.5 166.14-4.5 166.14-31.5 166.64-31.5 166.64-18.2 177.49-18.2 183.24-31.5 183.79-31.5 178.04-18.2 180.09-18.2Q183.14-18.2 184.64-17.05 186.14-15.9 186.14-13.3L186.14-13.3 186.14-4.5 185.64-4.5 185.64-13.3Q185.64-15.7 184.24-16.7 182.84-17.7 180.09-17.7L180.09-17.7 166.64-17.7ZM162.49 0L170.24 0Q171.19 0 171.62-0.43 172.04-0.85 172.04-1.8L172.04-1.8 172.04-13.25 178.64-13.25Q179.44-13.25 179.84-12.8 180.24-12.35 180.24-11.55L180.24-11.55 180.24-1.8Q180.24-0.85 180.67-0.43 181.09 0 182.04 0L182.04 0 189.74 0Q190.69 0 191.12-0.43 191.54-0.85 191.54-1.8L191.54-1.8 191.54-15.9Q191.54-18.9 189.87-20.73 188.19-22.55 185.39-22.7L185.39-22.7 190.49-34.35Q190.84-35.15 190.54-35.58 190.24-36 189.39-36L189.39-36 181.69-36Q180.74-36 180.14-35.63 179.54-35.25 179.19-34.35L179.19-34.35 174.04-22.7 172.04-22.7 172.04-34.2Q172.04-35.15 171.62-35.58 171.19-36 170.24-36L170.24-36 162.49-36Q161.54-36 161.12-35.58 160.69-35.15 160.69-34.2L160.69-34.2 160.69-1.8Q160.69-0.85 161.12-0.43 161.54 0 162.49 0L162.49 0ZM171.84 0.05L171.84 0.05 165.34 5.45Q165.14 5.65 164.72 5.8 164.29 5.95 163.79 5.95L163.79 5.95 156.04 5.95Q154.84 5.95 154.29 5.4 153.74 4.85 153.74 3.65L153.74 3.65 153.74-28.75Q153.74-29.4 153.92-29.85 154.09-30.3 154.44-30.6L154.44-30.6 160.89-36.05Q161.14-36.25 161.56-36.38 161.99-36.5 162.49-36.5L162.49-36.5 170.24-36.5Q171.44-36.5 171.99-35.95 172.54-35.4 172.54-34.2L172.54-34.2 172.54-29.65Q172.69-29.85 172.84-30.08 172.99-30.3 173.19-30.45L173.19-30.45 179.64-35.9Q179.99-36.2 180.52-36.35 181.04-36.5 181.69-36.5L181.69-36.5 189.39-36.5Q190.64-36.5 191.04-35.88 191.44-35.25 190.94-34.15L190.94-34.15 186.14-23.15Q188.84-22.8 190.44-20.85 192.04-18.9 192.04-15.9L192.04-15.9 192.04-1.8Q192.04-1.15 191.87-0.7 191.69-0.25 191.34 0.05L191.34 0.05 184.84 5.45Q184.64 5.65 184.22 5.8 183.79 5.95 183.29 5.95L183.29 5.95 175.59 5.95Q174.39 5.95 173.84 5.4 173.29 4.85 173.29 3.65L173.29 3.65 173.29-6.1Q173.29-6.6 173.09-6.9 172.89-7.2 172.54-7.25L172.54-7.25 172.54-1.8Q172.54-1.15 172.37-0.7 172.19-0.25 171.84 0.05Z" opacity="1" transform="matrix(1,0,0,1,0,0)" fill="#000000" class="wordmark-text-0" data-fill-palette-color="quaternary" id="text-0"></path></svg></g></svg></g><g transform="matrix(1,0,0,1,66.98649996,77.40329310853531)"><svg viewBox="0 0 249.73454004 8.028029324257842" height="8.028029324257842" width="249.73454004"><g transform="matrix(1,0,0,1,0,0)"><svg width="249.73454004" viewBox="3.5 -28.75 894.29 28.75" height="8.028029324257842" data-palette-color="#000000"><path d="M3.5-14.75L3.5-25.3 9.2-28.75 19.5-28.75 19.5-22.85 9.6-22.85 9.6-17.2 19.5-17.2 19.5-11.35 9.2-11.35 3.5-14.75ZM37.95-3.4L37.95-13.75 32.05-17.2 21.75-17.2 21.75-11.35 31.65-11.35 31.65-5.65 21.95-5.65 21.95 0 32.05 0 37.95-3.4ZM3.5-9.1L9.8-9.1 9.8-5.65 19.5-5.65 19.5 0 9.35 0 3.5-3.4 3.5-9.1ZM31.65-19.45L37.95-19.45 37.95-25.3 32.05-28.75 21.75-28.75 21.75-22.85 31.65-22.85 31.65-19.45ZM45.45-25.3L45.45-25.3 51.3-28.75 61.65-28.75 61.65-23.1 51.75-23.1 51.75-5.85 61.45-5.85 61.45 0 51.3 0 45.45-3.4 45.45-25.3ZM79.9-25.3L79.9-25.3 74.25-28.75 63.9-28.75 63.9-23.1 73.6-23.1 73.6-5.85 63.9-5.85 63.9 0 74.25 0 79.9-3.4 79.9-25.3ZM88.9-28.75L88.9-28.75 104.9-28.75 104.9-22.85 95.2-22.85 95.2-17.2 104.9-17.2 104.9-11.35 95.2-11.35 95.2 0 88.9 0 88.9-28.75ZM123.35-22.85L123.35-22.85 123.35-28.75 107.35-28.75 107.35-22.85 123.35-22.85ZM115.45-11.35L115.45-11.35 115.45-17.2 107.35-17.2 107.35-11.35 115.45-11.35ZM159.79-28.75L159.79-23.1 145.39-23.1 145.39 0 138.49 0 138.49-23.1 125.34-23.1 125.34-28.75 159.79-28.75ZM173.84 0L168.14 0 162.29-26.9 168.14-28.75 172.64-6.9 178.49-13.75 178.49-5.25 173.84 0ZM191.09 0L191.09 0 185.39 0 180.74-5.25 180.74-13.75 186.39-6.9 191.09-28.75 196.74-26.9 191.09 0ZM201.74-25.3L201.74-25.3 207.44-28.75 217.74-28.75 217.74-23.1 208.04-23.1 208.04-17.2 217.74-17.2 217.74-11.5 208.04-11.5 208.04 0 201.74 0 201.74-25.3ZM236.19-25.3L236.19-25.3 230.29-28.75 219.99-28.75 219.99-23.1 229.89-23.1 229.89-17.2 219.99-17.2 219.99-11.5 229.89-11.5 229.89 0 236.19 0 236.19-25.3ZM245.19-28.75L245.19-28.75 261.19-28.75 261.19-22.85 251.49-22.85 251.49-17.2 261.19-17.2 261.19-11.35 251.49-11.35 251.49 0 245.19 0 245.19-28.75ZM279.63 0L279.63 0 279.63-11.9 274.94-14.35 279.63-16.6 279.63-25.3 273.74-28.75 263.44-28.75 263.44-22.85 273.33-22.85 273.33-17.2 263.44-17.2 263.44-11.35 273.33-11.35 273.33 0 279.63 0ZM288.13-28.75L288.13-28.75 304.13-28.75 304.13-22.85 294.43-22.85 294.43-17.2 304.13-17.2 304.13-11.5 294.43-11.5 294.43-5.65 303.93-5.65 303.93 0 288.13 0 288.13-28.75ZM306.58-5.65L306.58-5.65 306.58 0 322.58 0 322.58-5.65 306.58-5.65ZM322.58-22.85L322.58-22.85 322.58-28.75 306.38-28.75 306.38-22.85 322.58-22.85ZM314.48-11.5L314.48-11.5 314.48-17.2 306.38-17.2 306.38-11.5 314.48-11.5ZM343.08-25.3L343.08-25.3 348.78-28.75 359.08-28.75 359.08-23.1 349.38-23.1 349.38-17.2 359.08-17.2 359.08-11.5 349.38-11.5 349.38 0 343.08 0 343.08-25.3ZM377.53-25.3L377.53-25.3 371.63-28.75 361.33-28.75 361.33-23.1 371.23-23.1 371.23-17.2 361.33-17.2 361.33-11.5 371.23-11.5 371.23 0 377.53 0 377.53-25.3ZM386.52 0L386.52-28.75 392.22-28.75 402.52-19.05 402.52-11.5 392.82-20.85 392.82 0 386.52 0ZM404.77-17.2L414.67-8.1 414.67-28.75 420.97-28.75 420.97 0 415.07 0 404.77-9.9 404.77-17.2ZM430.97 0L430.97-28.75 446.97-28.75 446.97-23.1 437.27-23.1 437.27-5.85 446.97-5.85 446.97 0 430.97 0ZM465.42-3.4L465.42-25.3 459.77-28.75 449.42-28.75 449.42-23.1 459.12-23.1 459.12-5.85 449.42-5.85 449.42 0 459.77 0 465.42-3.4ZM520.37-28.75L520.37-23.1 505.97-23.1 505.97 0 499.07 0 499.07-23.1 485.92-23.1 485.92-28.75 520.37-28.75ZM526.86-28.75L526.86-28.75 542.86-28.75 542.86-22.85 533.16-22.85 533.16-17.2 542.86-17.2 542.86-11.5 533.16-11.5 533.16-5.65 542.66-5.65 542.66 0 526.86 0 526.86-28.75ZM545.31-5.65L545.31-5.65 545.31 0 561.31 0 561.31-5.65 545.31-5.65ZM561.31-22.85L561.31-22.85 561.31-28.75 545.11-28.75 545.11-22.85 561.31-22.85ZM553.21-11.5L553.21-11.5 553.21-17.2 545.11-17.2 545.11-11.5 553.21-11.5ZM566.81-3.4L566.81-25.3 572.66-28.75 583.01-28.75 583.01-23.1 573.31-23.1 573.31-5.85 582.81-5.85 582.81 0 572.66 0 566.81-3.4ZM601.46-9.3L594.96-9.3 594.96-5.85 585.46-5.85 585.46 0 595.61 0 601.46-3.4 601.46-9.3ZM594.96-19.6L601.46-19.6 601.46-25.3 595.61-28.75 585.26-28.75 585.26-23.1 594.96-23.1 594.96-19.6ZM610.46-28.75L610.46-28.75 616.76-28.75 616.76-17.2 626.46-17.2 626.46-11.5 616.76-11.5 616.76 0 610.46 0 610.46-28.75ZM644.91-28.75L644.91-28.75 638.61-28.75 638.61-17.2 628.91-17.2 628.91-11.5 638.61-11.5 638.61 0 644.91 0 644.91-28.75ZM654.91 0L654.91-28.75 660.61-28.75 670.91-19.05 670.91-11.5 661.21-20.85 661.21 0 654.91 0ZM673.16-17.2L683.06-8.1 683.06-28.75 689.36-28.75 689.36 0 683.46 0 673.16-9.9 673.16-17.2ZM698.35-25.3L698.35-25.3 704.2-28.75 714.55-28.75 714.55-23.1 704.65-23.1 704.65-5.85 714.35-5.85 714.35 0 704.2 0 698.35-3.4 698.35-25.3ZM732.8-25.3L732.8-25.3 727.15-28.75 716.8-28.75 716.8-23.1 726.5-23.1 726.5-5.85 716.8-5.85 716.8 0 727.15 0 732.8-3.4 732.8-25.3ZM741.8-28.75L741.8-28.75 748.1-28.75 748.1-5.85 757.6-5.85 757.6 0 741.8 0 741.8-28.75ZM760.25-5.85L760.25-5.85 760.25 0 776.25 0 776.25-5.85 760.25-5.85ZM780.75-25.3L780.75-25.3 786.6-28.75 796.95-28.75 796.95-23.1 787.05-23.1 787.05-5.85 796.75-5.85 796.75 0 786.6 0 780.75-3.4 780.75-25.3ZM815.2-25.3L815.2-25.3 809.55-28.75 799.2-28.75 799.2-23.1 808.9-23.1 808.9-5.85 799.2-5.85 799.2 0 809.55 0 815.2-3.4 815.2-25.3ZM823.2-3.4L823.2-25.3 829.05-28.75 839.4-28.75 839.4-22.85 829.7-22.85 829.7-5.65 839.2-5.65 839.2 0 829.05 0 823.2-3.4ZM851.35-19.45L857.85-19.45 857.85-25.3 852-28.75 841.65-28.75 841.65-22.85 851.35-22.85 851.35-19.45ZM857.85-3.4L857.85-17.2 841.65-17.2 841.65-11.5 851.35-11.5 851.35-5.65 841.85-5.65 841.85 0 852 0 857.85-3.4ZM897.79-26.9L883.39-13.15 883.39 0 877.74 0 877.74-13.15 863.34-26.9 869.04-28.75 880.54-17.8 880.54-17.8 892.14-28.75 897.79-26.9Z" opacity="1" transform="matrix(1,0,0,1,0,0)" fill="#000000" class="slogan-text-1" data-fill-palette-color="quaternary" id="text-1"></path></svg></g></svg></g></svg></g></svg></g></svg></g><defs></defs></svg><rect width="356.12052" height="124.83080243279315" fill="none" stroke="none" visibility="hidden"></rect></g></svg></g></svg>